<?xml version="1.0" encoding="utf-8"?>
<!-- Generator: Adobe Illustrator 23.0.1, SVG Export Plug-In . SVG Version: 6.00 Build 0)  -->
<svg version="1.1" id="Camada_1" xmlns="http://www.w3.org/2000/svg" xmlns:xlink="http://www.w3.org/1999/xlink" x="0px" y="0px"
	 viewBox="0 0 1000 1000" style="enable-background:new 0 0 1000 1000;" xml:space="preserve">
<path d="M920.6,408.6l-90.9-7.5c-6.6-22.1-15.4-43.2-26-63.1l57-73.2c4.6-6,3.4-15.3-2.8-21.5L751.8,137.1c-6.4-6.4-16-7.4-21.9-2.4
	l-70.9,60c-19-9.9-39.1-18.1-59.9-24.4l-10.9-87.2c-1-7.6-8.4-13.3-17.2-13.3H421c-9,0-16.6,6-17.2,13.8l-7.3,88
	c-20.5,6.4-40.1,14.7-58.7,24.7l-73.2-57c-6-4.6-15.3-3.4-21.5,2.8L137,248.3c-6.4,6.4-7.4,16-2.4,21.9l60,70.8
	c-10.5,20.1-19,41.3-25.4,63.5l-90.9,11.3c-7.6,1-13.3,8.4-13.3,17.2v150c0,9.1,6,16.6,13.8,17.3l94.4,7.8
	c6.2,18.7,14,36.7,23.1,53.9l-57,73.3c-4.6,6-3.4,15.3,2.8,21.5L248.3,863c6.4,6.4,16,7.4,21.9,2.4l70.8-60
	c18.4,9.6,37.9,17.6,58.1,23.8l12.1,96.7c1,7.6,8.4,13.3,17.2,13.3h150c9,0,16.6-6,17.2-13.8l8.1-97.1c20.4-6.4,39.9-14.7,58.5-24.6
	l73.3,57c6,4.6,15.3,3.4,21.5-2.8l106-106.1c6.4-6.4,7.4-16,2.4-21.9l-60-70.9c9-17.3,16.6-35.5,22.7-54.4l93.1-11.6
	c7.6-1,13.3-8.4,13.3-17.2v-150C934.4,416.8,928.4,409.2,920.6,408.6z M672.1,500c0,95-77.1,172.1-172.1,172.1
	s-172.1-77-172.1-172.1S405,327.9,500,327.9S672.1,405,672.1,500z"/>
</svg>
