<?xml version="1.0" encoding="utf-8"?>
<!-- Generator: Adobe Illustrator 23.0.1, SVG Export Plug-In . SVG Version: 6.00 Build 0)  -->
<svg version="1.2" baseProfile="tiny" id="Camada_1"
	 xmlns="http://www.w3.org/2000/svg" xmlns:xlink="http://www.w3.org/1999/xlink" x="0px" y="0px" viewBox="0 0 1000 1000"
	 xml:space="preserve">
<path d="M897.4,746.5l-89.1-89.1l-43.6-43.6c27.9-51.8,43.7-111,43.7-173.9c0-202.9-164.5-367.4-367.4-367.4S73.6,237.1,73.6,440
	S238.1,807.4,441,807.4c62.9,0,122.1-15.8,173.9-43.7l43.6,43.6l89.1,89.1c41.4,41.4,108.5,41.4,149.8,0
	C938.8,855,938.8,787.9,897.4,746.5z M134.4,440c0-169.3,137.3-306.6,306.6-306.6S747.5,270.7,747.5,440S610.3,746.5,441,746.5
	S134.4,609.3,134.4,440z"/>
</svg>
